<svg xmlns="http://www.w3.org/2000/svg" width="522.333" height="332.221" viewBox="0 0 522.333 332.221">
  <g id="We_Convert_your_Design_into_Pixel_Perfect_HTML_CSS_-_htmlBurger_-0" data-name="We Convert your Design into Pixel Perfect HTML_CSS - htmlBurger ®-0" transform="translate(0 -0.107)">
    <path id="Path_1" data-name="Path 1" d="M851,721.08V854.849h205.682V721.08Zm189.092,125.387h-80.71V809.337h80.71Zm0-49.954H862.32V738.933h177.771Z" transform="translate(-707.129 -578.443)" fill="#fff" opacity="0.4"/>
    <path id="Path_2" data-name="Path 2" d="M699.63,1362.14c1.945,3.832,3.289,8.484,4.958,12.369H984.473l2.26-5.69h16.085l-1.134-6.671H699.63Z" transform="translate(-587.492 -1085.114)" fill="#f4f4f4"/>
    <path id="Path_3" data-name="Path 3" d="M727.266,1337.017H569.6v-1.136H726.492l4.522-11.5h15.905v-5.7H421.4v5.7h23.722l4.522,11.5h64.283v1.136H448.867l-4.52-11.5H420.26v-7.977h327.8v7.977H731.788Z" transform="translate(-332.158 -1041.252)"/>
    <ellipse id="Ellipse_1" data-name="Ellipse 1" cx="9.534" cy="17.125" rx="9.534" ry="17.125" transform="translate(288.846 20.998) rotate(-68.56)" fill="#f4f4f4"/>
    <path id="Path_4" data-name="Path 4" d="M1546.777,69.669a34.99,34.99,0,0,1-12.528-2.516l.419-1.048c10.8,4.241,21.467,2.906,23.777-2.975s-4.6-14.121-15.4-18.362-21.467-2.908-23.777,2.975c-1.218,3.1.126,7.031,3.688,10.79l-.826.782c-3.876-4.092-5.3-8.459-3.92-11.985,2.541-6.465,13.865-8.088,25.251-3.618s18.578,13.371,16.037,19.836C1557.929,67.524,1553,69.669,1546.777,69.669Z" transform="translate(-1234.063 -41.08)" fill="#444023"/>
    <rect id="Rectangle_5" data-name="Rectangle 5" width="1.136" height="69.241" transform="translate(348.39 207.951)" fill="#444023"/>
    <rect id="Rectangle_6" data-name="Rectangle 6" width="60.279" height="1.136" transform="translate(156.04 234.365)" fill="#444023"/>
    <rect id="Rectangle_7" data-name="Rectangle 7" width="84.613" height="1.136" transform="translate(156.04 246.589)" fill="#444023"/>
    <rect id="Rectangle_8" data-name="Rectangle 8" width="37" height="10" rx="2" transform="translate(156 258)" fill="#00a0d2"/>
    <path id="Path_5" data-name="Path 5" d="M941.111,1281.3H909.856a3.488,3.488,0,0,1-3.486-3.484v-4.492a3.488,3.488,0,0,1,3.486-3.486h31.261a3.488,3.488,0,0,1,3.486,3.484v4.493A3.488,3.488,0,0,1,941.111,1281.3Zm-31.255-10.327a2.352,2.352,0,0,0-2.348,2.348v4.493a2.352,2.352,0,0,0,2.348,2.348h31.261a2.352,2.352,0,0,0,2.348-2.348v-4.493a2.352,2.352,0,0,0-2.348-2.348Z" transform="translate(-750.891 -1012.163)" fill="#444023"/>
    <rect id="Rectangle_9" data-name="Rectangle 9" width="11.738" height="1.136" transform="translate(28.28 238.082)" fill="#ffe88c"/>
    <rect id="Rectangle_10" data-name="Rectangle 10" width="11.738" height="1.136" transform="translate(44.579 238.082)" fill="#ffe88c"/>
    <rect id="Rectangle_11" data-name="Rectangle 11" width="1.136" height="11.738" transform="translate(41.73 224.63)" fill="#ffe88c"/>
    <rect id="Rectangle_12" data-name="Rectangle 12" width="1.136" height="11.738" transform="translate(41.73 240.931)" fill="#ffe88c"/>
    <rect id="Rectangle_15" data-name="Rectangle 15" width="1.136" height="4.912" transform="translate(59.782 212.844)" fill="#00a0d2"/>
    <rect id="Rectangle_17" data-name="Rectangle 17" width="233.511" height="1.136" transform="translate(254.295 294.629)"/>
    <rect id="Rectangle_18" data-name="Rectangle 18" width="153.672" height="1.136" transform="translate(0 294.629)"/>
    <rect id="Rectangle_19" data-name="Rectangle 19" width="70.232" height="1.136" transform="translate(452.101 224.001)"/>
    <rect id="Rectangle_20" data-name="Rectangle 20" width="21.452" height="1.136" transform="translate(436.762 216.144)" fill="#fff"/>
    <path id="Path_6" data-name="Path 6" d="M1986.017,507.227l-.107-1.13c53.206-5.061,80.739-23.932,94.47-38.875,14.832-16.142,17.161-31.236,17.19-31.383l1.124.164c-.023.153-2.4,15.591-17.471,31.988-8.838,9.6-20.245,17.679-33.9,23.987C2030.282,499.848,2009.653,504.978,1986.017,507.227Z" transform="translate(-1604.121 -353)" fill="#ffe88c"/>
    <path id="Path_7" data-name="Path 7" d="M670.894,942.291c-9.394-36.938-51.4-58.107-92.016-78.58-37.047-18.679-72.037-36.307-76.907-64.285-1.887-10.87.629-19.658,7.476-26.114,16.649-15.691,53.906-13,65.593-10.243l-.26,1.107c-11.53-2.725-48.244-5.409-64.553,9.962-6.557,6.178-8.958,14.62-7.128,25.091,4.771,27.414,39.514,44.925,76.308,63.465,40.846,20.586,83.083,41.875,92.6,79.314Z" transform="translate(-430.789 -609.963)" fill="#ffe88c"/>
    <g id="Group_5" data-name="Group 5" transform="translate(144.121 142.14)" opacity="0.1">
      <path id="Path_8" data-name="Path 8" d="M869.407,749.529c8.761,4.822,17.9,8.893,27.043,12.905,35.659,15.645,71.243,31.408,107.124,46.539,17.8,7.507,35.653,14.884,53.457,22.381V718.71H852.19v19.746C857.81,742.309,863.389,746.221,869.407,749.529Z" transform="translate(-852.19 -718.71)"/>
    </g>
    <path id="Path_9" data-name="Path 9" d="M1034.652,398.1A134.94,134.94,0,0,0,901.21,215.139a28.121,28.121,0,0,1,16.417,8.891c13.8,15.739,5.7,45.409-18.085,66.27s-54.256,25.012-68.067,9.272-5.7-45.409,18.085-66.27a83.557,83.557,0,0,1,17.016-11.6,134.647,134.647,0,0,0-83.016,77.775Z" transform="translate(-653.827 -178.399)" fill="#f4f4f4"/>
    <path id="Path_10" data-name="Path 10" d="M1577.93,163.588l.459,1.379-5.715-2.245L1570.7,145.66l13.232,5.2-1.277.7A10.086,10.086,0,0,0,1577.93,163.588Z" transform="translate(-1275.954 -123.652)" fill="#f4f4f4"/>
    <path id="Path_11" data-name="Path 11" d="M986.781,367.2l-.518-.21L734.7,268.184l.191-.522q.55-1.5,1.136-3c12.362-31.45,37.533-57.392,72.794-75l.507,1.017c-35.005,17.486-59.983,43.216-72.236,74.408q-.482,1.226-.935,2.457l250,98.2q.5-1.21.987-2.436c27.079-68.941-6.977-147.06-75.918-174.138a133.462,133.462,0,0,0-51.711-9.31l-.023-1.136a135.5,135.5,0,0,1,128.71,185q-.589,1.5-1.212,2.973Z" transform="translate(-615.21 -149.761)" fill="#444023"/>
    <path id="Path_12" data-name="Path 12" d="M1084.483,361.38l-32.263,14.064,14.067,32.261,3.323-1.449-12.618-28.938,28.94-12.616Z" transform="translate(-831.637 -285.537)" fill="#f4f4f4"/>
    <path id="Path_13" data-name="Path 13" d="M1342.385,443.99l-3.323,1.449,12.616,28.94-28.938,12.616,1.449,3.323,32.261-14.067Z" transform="translate(-1045.446 -350.829)" fill="#f4f4f4"/>
    <rect id="Rectangle_21" data-name="Rectangle 21" width="50.455" height="3.625" transform="translate(246.131 123.213) rotate(-44.36)" fill="#f4f4f4"/>
    <path id="Path_14" data-name="Path 14" d="M1083.311,415.1l-13.681-31.383,31.38-13.681.681,1.564-29.819,13,13,29.819Z" transform="translate(-845.397 -292.382)" fill="#353635"/>
    <path id="Path_15" data-name="Path 15" d="M1336.631,495.353l-.681-1.564,29.819-13-13-29.819,1.562-.681,13.681,31.383Z" transform="translate(-1055.887 -355.809)" fill="#353635"/>
    <rect id="Rectangle_22" data-name="Rectangle 22" width="50.455" height="1.704" transform="translate(249.195 124.845) rotate(-44.37)" fill="#353635"/>
    <path id="Path_16" data-name="Path 16" d="M1601.366,183.663c-1.773-3.493-2.115-6.627-1.017-9.31,1.667-4.071,6.014-5.57,6.2-5.633l.363,1.078c-.04.015-4.05,1.407-5.513,5-.964,2.365-.629,5.176.983,8.356Z" transform="translate(-1298.89 -141.878)" fill="#444023"/>
    <path id="Path_17" data-name="Path 17" d="M1539.522,159.3l-.392-1.067c3.354-1.233,5.509-3.071,6.411-5.463,1.369-3.635-.629-7.365-.641-7.4l1-.543c.092.17,2.258,4.228.707,8.346C1545.585,155.88,1543.2,157.943,1539.522,159.3Z" transform="translate(-1251.002 -122.988)" fill="#444023"/>
    <path id="Path_18" data-name="Path 18" d="M685.906,810.532H684.77V674.91h38.215v1.136H685.906Z" transform="translate(-541.218 -533.34)" fill="#444023"/>
    <path id="Path_19" data-name="Path 19" d="M919.948,822.586H741.63V763.71h74.853v1.136H742.766v56.6H918.812V804.53h1.136Z" transform="translate(-586.158 -603.525)" fill="#444023"/>
    <path id="Path_20" data-name="Path 20" d="M1889.746,384.958c-9.383-32.913-30-47.824-30.206-47.969l.656-.929c.21.149,21.144,15.268,30.643,48.585Z" transform="translate(-1504.243 -274.137)" fill="#fffefe"/>
    <path id="Path_21" data-name="Path 21" d="M1995.473,389.207c-3.191-14.092-10.985-20.892-11.062-20.964l.738-.864c.331.283,8.159,7.115,11.431,21.572Z" transform="translate(-1602.936 -298.891)" fill="#fffefe"/>
    <path id="Path_22" data-name="Path 22" d="M1284.251,1135.381H1202.56V1096.11h60.511v1.136H1203.7v37h79.419v-35.3h1.136Z" transform="translate(-950.46 -866.242)" fill="#444023"/>
  </g>
</svg>
